<svg width="75" height="25" viewBox="0 0 75 25" fill="none" xmlns="http://www.w3.org/2000/svg">
<path d="M13.1816 4.11133C13.1816 4.95508 13.0996 5.79297 12.9355 6.625C12.7832 7.44531 12.6543 8.27148 12.5488 9.10352C12.4902 9.18555 12.4258 9.25586 12.3555 9.31445C12.2969 9.36133 12.2383 9.41406 12.1797 9.47266V9.64844C12.1797 9.8125 12.1562 9.97656 12.1094 10.1406L11.9863 10.6152C11.9512 10.7676 11.9219 10.9258 11.8984 11.0898C11.875 11.2422 11.8867 11.4004 11.9336 11.5645C11.793 11.9043 11.6875 12.2559 11.6172 12.6191C11.5469 12.9707 11.4824 13.3281 11.4238 13.6914C11.377 14.0547 11.3242 14.418 11.2656 14.7812C11.207 15.1445 11.125 15.502 11.0195 15.8535L11.0371 16.1172C11.0605 16.4922 11.0312 16.8672 10.9492 17.2422C10.8789 17.6172 10.8438 17.9922 10.8438 18.3672C10.8438 18.6133 10.8496 18.8535 10.8613 19.0879C10.8848 19.3223 10.8965 19.5566 10.8965 19.791C10.8965 20.0488 10.8789 20.2891 10.8438 20.5117C10.9375 20.6289 11.0078 20.7637 11.0547 20.916L11.2129 21.373C11.2715 21.5254 11.3359 21.666 11.4062 21.7949C11.4766 21.9238 11.582 22.0234 11.7227 22.0938C11.8516 22.0352 11.9688 21.9824 12.0742 21.9355C12.1914 21.9004 12.3145 21.8828 12.4434 21.8828C12.6309 21.8828 12.7949 21.9355 12.9355 22.041C12.959 22.1582 12.9648 22.2812 12.9531 22.4102C12.9531 22.5391 12.9648 22.668 12.9883 22.7969C12.8711 22.9141 12.7363 23.0137 12.584 23.0957C12.4434 23.1777 12.3086 23.2656 12.1797 23.3594C12.1797 23.3828 12.1797 23.4062 12.1797 23.4297C12.1914 23.4648 12.1973 23.4941 12.1973 23.5176C12.1973 23.752 12.1094 23.9277 11.9336 24.0449C11.7695 24.1738 11.5879 24.2383 11.3887 24.2383C11.3301 24.2383 11.248 24.2266 11.1426 24.2031C11.0371 24.1797 10.9551 24.1504 10.8965 24.1152C10.5801 23.9043 10.3047 23.6172 10.0703 23.2539C9.83594 22.8906 9.64258 22.498 9.49023 22.0762C9.34961 21.6543 9.23828 21.2207 9.15625 20.7754C9.08594 20.3418 9.05078 19.9492 9.05078 19.5977V19.2109C9.05078 19.082 9.0625 18.9531 9.08594 18.8242C9.09766 18.7305 9.12109 18.6602 9.15625 18.6133C9.19141 18.5547 9.20898 18.4727 9.20898 18.3672C9.20898 17.7461 9.24414 17.125 9.31445 16.5039C9.39648 15.8828 9.48438 15.2617 9.57812 14.6406C9.67188 14.0078 9.75977 13.3809 9.8418 12.7598C9.93555 12.1387 9.99414 11.5117 10.0176 10.8789C9.88867 10.9141 9.78906 10.9961 9.71875 11.125C9.64844 11.2422 9.53711 11.3301 9.38477 11.3887C9.11523 11.7754 8.79883 12.1211 8.43555 12.4258C8.08398 12.7188 7.75586 13.0469 7.45117 13.4102C7.28711 13.4805 7.12891 13.5566 6.97656 13.6387C6.82422 13.7207 6.68359 13.8262 6.55469 13.9551C6.15625 13.9902 5.82227 14.1426 5.55273 14.4121L5.39453 14.3945C5.24219 14.3945 5.10156 14.4414 4.97266 14.5352C4.87891 14.5352 4.78516 14.5176 4.69141 14.4824C4.60938 14.4473 4.52148 14.4297 4.42773 14.4297C4.32227 14.4297 4.23438 14.4648 4.16406 14.5352C3.82422 14.4531 3.53711 14.3242 3.30273 14.1484C3.06836 13.9609 2.85156 13.7617 2.65234 13.5508C2.46484 13.3281 2.27148 13.1055 2.07227 12.8828C1.88477 12.6484 1.66211 12.4434 1.4043 12.2676C1.33398 11.998 1.26953 11.7578 1.21094 11.5469C1.15234 11.3242 1.09961 11.1074 1.05273 10.8965C1.01758 10.6855 0.988281 10.4688 0.964844 10.2461C0.929688 10.0117 0.912109 9.74805 0.912109 9.45508C0.912109 8.6582 0.947266 7.87305 1.01758 7.09961C1.08789 6.31445 1.16992 5.53516 1.26367 4.76172C1.45117 4.44531 1.58594 4.10547 1.66797 3.74219C1.76172 3.36719 1.84375 2.99219 1.91406 2.61719C1.99609 2.24219 2.08398 1.87305 2.17773 1.50977C2.2832 1.14648 2.44141 0.818359 2.65234 0.525391H2.77539C2.9043 0.525391 3.02148 0.537109 3.12695 0.560547C3.24414 0.572266 3.35547 0.560547 3.46094 0.525391C3.625 0.818359 3.70703 1.14648 3.70703 1.50977C3.70703 1.74414 3.67773 1.97852 3.61914 2.21289C3.57227 2.44727 3.51367 2.68164 3.44336 2.91602C3.38477 3.13867 3.32617 3.36719 3.26758 3.60156C3.20898 3.83594 3.17383 4.07031 3.16211 4.30469C3.0918 4.41016 3.03906 4.52148 3.00391 4.63867C2.98047 4.75586 2.92188 4.85547 2.82812 4.9375L2.8457 5.18359C2.86914 5.44141 2.83398 5.6875 2.74023 5.92188C2.6582 6.15625 2.60547 6.40234 2.58203 6.66016C2.57031 6.78906 2.57031 6.91797 2.58203 7.04688C2.60547 7.17578 2.61719 7.30469 2.61719 7.43359C2.61719 7.73828 2.60547 8.03711 2.58203 8.33008C2.57031 8.62305 2.56445 8.92188 2.56445 9.22656C2.56445 9.44922 2.58789 9.66602 2.63477 9.87695C2.68164 10.0762 2.70508 10.2285 2.70508 10.334C2.70508 10.416 2.6875 10.4922 2.65234 10.5625C2.6875 10.6797 2.73438 10.7852 2.79297 10.8789L2.96875 11.1426C3.02734 11.2246 3.08008 11.3184 3.12695 11.4238C3.17383 11.5176 3.20312 11.6289 3.21484 11.7578C3.68359 12.1914 4.25781 12.4082 4.9375 12.4082C5.32422 12.4082 5.69922 12.2969 6.0625 12.0742C6.4375 11.8516 6.79492 11.582 7.13477 11.2656C7.48633 10.9492 7.82031 10.627 8.13672 10.2988C8.46484 9.95898 8.78125 9.68359 9.08594 9.47266C9.19141 9.26172 9.32617 9.0332 9.49023 8.78711C9.66602 8.5293 9.8418 8.27148 10.0176 8.01367C10.1934 7.74414 10.3516 7.48633 10.4922 7.24023C10.6328 6.98242 10.7266 6.74219 10.7734 6.51953C10.7969 6.41406 10.8086 6.30273 10.8086 6.18555C10.8086 6.06836 10.8203 5.94531 10.8438 5.81641C10.9023 5.40625 10.9727 4.99609 11.0547 4.58594C11.1484 4.17578 11.1953 3.75977 11.1953 3.33789C11.1953 3.25586 11.1895 3.17969 11.1777 3.10938C11.1777 3.03906 11.1719 2.95703 11.1602 2.86328C11.2539 2.74609 11.3477 2.64062 11.4414 2.54688C11.5352 2.44141 11.6113 2.31836 11.6699 2.17773C11.8223 2.20117 11.9629 2.20703 12.0918 2.19531C12.2207 2.17188 12.3555 2.16016 12.4961 2.16016C12.6719 2.16016 12.8359 2.20703 12.9883 2.30078C13.1172 2.92188 13.1816 3.52539 13.1816 4.11133ZM25.627 8.82227C25.5566 8.92773 25.5156 9.04492 25.5039 9.17383C25.4922 9.30273 25.4863 9.41992 25.4863 9.52539C25.4863 9.66602 25.4863 9.80664 25.4863 9.94727C25.498 10.0762 25.5039 10.2051 25.5039 10.334V10.5977C25.4805 10.6797 25.4453 10.7617 25.3984 10.8438C25.3516 10.9258 25.3164 11.0078 25.293 11.0898C25.1289 11.5234 25.0469 11.957 25.0469 12.3906V12.4258C24.9883 12.5664 24.9297 12.6953 24.8711 12.8125C24.8242 12.9297 24.7773 13.0469 24.7305 13.1641C24.6836 13.2695 24.6484 13.3867 24.625 13.5156C24.6016 13.6328 24.5957 13.7734 24.6074 13.9375C24.4434 14.3477 24.2266 14.7227 23.957 15.0625C23.6875 15.3906 23.4238 15.7305 23.166 16.082C22.9199 16.1758 22.6914 16.2988 22.4805 16.4512C22.2812 16.6035 22.0879 16.7734 21.9004 16.9609C21.5371 17.0781 21.1797 17.2129 20.8281 17.3652C20.4766 17.5176 20.1602 17.7227 19.8789 17.9805C19.6562 18.0039 19.4336 18.0391 19.2109 18.0859C18.9883 18.1328 18.7715 18.2031 18.5605 18.2969H18.3496C18.2441 18.2969 18.168 18.2734 18.1211 18.2266C17.9688 18.3086 17.8105 18.3672 17.6465 18.4023C17.4824 18.4258 17.3184 18.4375 17.1543 18.4375C16.9434 18.4375 16.7324 18.4258 16.5215 18.4023C16.3223 18.3672 16.1172 18.332 15.9062 18.2969C15.7891 18.1328 15.625 18.0098 15.4141 17.9277C15.2031 17.834 15.0156 17.7461 14.8516 17.6641C14.5117 17.1953 14.2656 16.7441 14.1133 16.3105C13.9609 15.8652 13.8027 15.3672 13.6387 14.8164C13.6621 14.6523 13.7031 14.4941 13.7617 14.3418C13.8203 14.1777 13.8438 14.002 13.832 13.8145C14.043 13.2051 14.3184 12.6543 14.6582 12.1621C15.0098 11.6582 15.4082 11.1777 15.8535 10.7207C15.8535 10.6504 15.8652 10.5918 15.8887 10.5449C15.9238 10.498 15.9297 10.4277 15.9062 10.334C15.918 10.3457 15.9414 10.3516 15.9766 10.3516C16.0703 10.3516 16.1289 10.3281 16.1523 10.2812C16.1758 10.2227 16.1816 10.1582 16.1699 10.0879C16.5918 9.81836 16.9727 9.50781 17.3125 9.15625C17.6641 8.80469 18.0625 8.51172 18.5078 8.27734C18.543 8.17188 18.6016 8.08398 18.6836 8.01367C18.7656 7.94336 18.8301 7.86133 18.877 7.76758C19.252 7.66211 19.5918 7.50391 19.8965 7.29297C20.2012 7.08203 20.5234 6.89453 20.8633 6.73047C21.0508 6.625 21.2266 6.55469 21.3906 6.51953C21.5664 6.47266 21.7539 6.42578 21.9531 6.37891C22.0234 6.35547 22.0879 6.33789 22.1465 6.32617C22.2051 6.31445 22.2695 6.30859 22.3398 6.30859C22.5508 6.30859 22.7559 6.34961 22.9551 6.43164C23.1543 6.50195 23.3594 6.53711 23.5703 6.53711C23.6289 6.53711 23.6758 6.53711 23.7109 6.53711C23.7578 6.52539 23.8047 6.51367 23.8516 6.50195C24.0508 6.74805 24.3027 6.93555 24.6074 7.06445C24.6777 7.24023 24.7598 7.39258 24.8535 7.52148C24.959 7.65039 25.0645 7.7793 25.1699 7.9082C25.2754 8.02539 25.3691 8.16016 25.4512 8.3125C25.5449 8.45312 25.6035 8.62305 25.627 8.82227ZM23.8691 9.73633C23.8691 9.67773 23.8633 9.625 23.8516 9.57812C23.7344 9.54297 23.623 9.49609 23.5176 9.4375C23.4121 9.37891 23.2949 9.34961 23.166 9.34961C23.084 9.34961 23.002 9.36719 22.9199 9.40234C22.9082 9.32031 22.873 9.26172 22.8145 9.22656C22.7676 9.19141 22.709 9.16211 22.6387 9.13867C22.5801 9.10352 22.5156 9.08008 22.4453 9.06836C22.3867 9.04492 22.334 9.00977 22.2871 8.96289C22.252 8.86914 22.2109 8.77539 22.1641 8.68164C22.1289 8.57617 22.0586 8.5 21.9531 8.45312C21.8477 8.55859 21.7246 8.64648 21.584 8.7168C21.4434 8.77539 21.2969 8.83398 21.1445 8.89258C21.0039 8.95117 20.8633 9.02148 20.7227 9.10352C20.5938 9.18555 20.4824 9.28516 20.3887 9.40234H20.0723C20.002 9.53125 19.9023 9.63086 19.7734 9.70117C19.6445 9.75977 19.5332 9.84766 19.4395 9.96484C19.252 10.0586 19.0762 10.1758 18.9121 10.3164C18.7598 10.4453 18.6074 10.5859 18.4551 10.7383C18.3027 10.8789 18.1504 11.0254 17.998 11.1777C17.8574 11.3301 17.7051 11.4707 17.541 11.5996C17.3887 11.9277 17.2188 12.2148 17.0312 12.4609C16.8555 12.6953 16.6855 12.9355 16.5215 13.1816C16.3691 13.4277 16.2344 13.6973 16.1172 13.9902C16.0117 14.2715 15.959 14.623 15.959 15.0449V15.2207C15.959 15.2793 15.9648 15.3379 15.9766 15.3965C16.1289 15.5605 16.252 15.7363 16.3457 15.9238C16.4512 16.1113 16.6211 16.2461 16.8555 16.3281C17.0898 16.4219 17.3359 16.4629 17.5938 16.4512C17.8633 16.4395 18.1211 16.4688 18.3672 16.5391C18.9297 16.4336 19.4688 16.2637 19.9844 16.0293C20.5117 15.7832 21.0098 15.4902 21.4785 15.1504C21.5488 15.0918 21.6309 15.0332 21.7246 14.9746C21.8184 14.9043 21.8945 14.834 21.9531 14.7637C22.0117 14.7051 22.0586 14.6406 22.0938 14.5703C22.1406 14.5 22.1875 14.4355 22.2344 14.377C22.3281 14.2246 22.4336 14.0723 22.5508 13.9199C22.668 13.7676 22.791 13.627 22.9199 13.498C22.9785 13.2402 23.0547 12.9941 23.1484 12.7598C23.2422 12.5137 23.3359 12.2734 23.4297 12.0391C23.5234 11.8047 23.5996 11.5645 23.6582 11.3184C23.7285 11.0723 23.7637 10.8145 23.7637 10.5449C23.7637 10.4863 23.7578 10.4219 23.7461 10.3516C23.7461 10.2812 23.7402 10.2168 23.7285 10.1582C23.8223 10.0293 23.8691 9.88867 23.8691 9.73633ZM37.791 16.1523C37.7441 16.3281 37.668 16.4746 37.5625 16.5918C37.457 16.709 37.334 16.8145 37.1934 16.9082C37.0645 17.002 36.9238 17.0898 36.7715 17.1719C36.6191 17.2422 36.4727 17.3242 36.332 17.418H36.1035C35.6113 17.418 35.2305 17.3008 34.9609 17.0664C34.7031 16.8203 34.5039 16.5215 34.3633 16.1699C34.2227 15.8066 34.1172 15.4199 34.0469 15.0098C33.9883 14.5996 33.9121 14.2246 33.8184 13.8848C33.6777 14.002 33.5605 14.1426 33.4668 14.3066C33.373 14.459 33.2734 14.6113 33.168 14.7637C33.0742 14.916 32.9629 15.0566 32.834 15.1855C32.7168 15.3145 32.5586 15.4023 32.3594 15.4492C32.3242 15.5312 32.2832 15.6133 32.2363 15.6953C32.2012 15.7773 32.1777 15.8652 32.166 15.959C31.9082 16.0996 31.6738 16.2637 31.4629 16.4512C31.252 16.6387 31.041 16.832 30.8301 17.0312C30.6191 17.2305 30.4023 17.4238 30.1797 17.6113C29.9688 17.7871 29.7285 17.9336 29.459 18.0508C29.4473 18.0391 29.4238 18.0332 29.3887 18.0332C29.248 18.0332 29.1191 18.0684 29.002 18.1387C28.8848 18.1973 28.7559 18.2266 28.6152 18.2266C28.5215 18.2266 28.4336 18.209 28.3516 18.1738C28.2812 18.1387 28.2051 18.0977 28.123 18.0508C28.0527 18.0039 27.9766 17.9688 27.8945 17.9453C27.8125 17.9219 27.7246 17.916 27.6309 17.9277C27.5137 17.7168 27.3555 17.5234 27.1562 17.3477C26.9688 17.1602 26.8516 16.9492 26.8047 16.7148C26.7812 16.6094 26.7637 16.5039 26.752 16.3984C26.752 16.2812 26.7402 16.1641 26.7168 16.0469C26.6816 15.8711 26.6348 15.6953 26.5762 15.5195C26.5176 15.332 26.4707 15.1445 26.4355 14.957C26.4941 14.6406 26.5527 14.2949 26.6113 13.9199C26.6582 13.5332 26.7168 13.1523 26.7871 12.7773C26.8691 12.3906 26.9746 12.0273 27.1035 11.6875C27.2441 11.3359 27.4199 11.0371 27.6309 10.791L27.6133 10.668C27.6133 10.4805 27.6484 10.3047 27.7188 10.1406C27.7891 9.97656 27.8652 9.81836 27.9473 9.66602C28.0293 9.51367 28.0996 9.36133 28.1582 9.20898C28.2168 9.05664 28.2285 8.88672 28.1934 8.69922C28.334 8.62891 28.4805 8.57031 28.6328 8.52344C28.7852 8.47656 28.9434 8.45312 29.1074 8.45312C29.2598 8.45312 29.4004 8.47656 29.5293 8.52344C29.5059 8.61719 29.5469 8.67578 29.6523 8.69922V8.75195C29.6523 8.99805 29.623 9.23828 29.5645 9.47266C29.5059 9.70703 29.4355 9.94141 29.3535 10.1758C29.2715 10.3984 29.1895 10.627 29.1074 10.8613C29.0371 11.084 28.9844 11.3125 28.9492 11.5469C28.9023 11.5586 28.8672 11.582 28.8438 11.6172C28.832 11.6523 28.8203 11.6875 28.8086 11.7227C28.7969 11.7578 28.7793 11.7871 28.7559 11.8105C28.7324 11.834 28.6973 11.8457 28.6504 11.8457C28.5801 12.2559 28.5039 12.666 28.4219 13.0762C28.3516 13.4746 28.3164 13.8789 28.3164 14.2891C28.3164 14.5352 28.3398 14.7871 28.3867 15.0449C28.4336 15.3027 28.5215 15.5488 28.6504 15.7832L28.7207 15.7656C28.8496 15.7656 28.9492 15.7949 29.0195 15.8535C29.1016 15.9121 29.207 15.9707 29.3359 16.0293C29.4297 16.0059 29.5176 15.9766 29.5996 15.9414C29.6816 15.8945 29.7168 15.8184 29.7051 15.7129C29.8574 15.7012 29.9863 15.666 30.0918 15.6074C30.1973 15.5371 30.291 15.4609 30.373 15.3789L30.6367 15.1328C30.7305 15.0508 30.8418 14.9922 30.9707 14.957C30.9707 14.8867 30.9883 14.834 31.0234 14.7988L31.1289 14.6934C31.1641 14.6582 31.1875 14.623 31.1992 14.5879C31.2227 14.541 31.2285 14.4766 31.2168 14.3945C31.3574 14.3828 31.4629 14.3477 31.5332 14.2891C31.6152 14.2305 31.6855 14.166 31.7441 14.0957C31.8145 14.0137 31.8789 13.9316 31.9375 13.8496C31.9961 13.7676 32.0723 13.6973 32.166 13.6387C32.248 13.4629 32.3594 13.2285 32.5 12.9355C32.6523 12.6426 32.7988 12.3379 32.9395 12.0215C33.0918 11.7051 33.2207 11.4062 33.3262 11.125C33.4434 10.832 33.502 10.6094 33.502 10.457C33.502 10.3984 33.4844 10.3457 33.4492 10.2988C33.4258 10.252 33.4199 10.1992 33.4316 10.1406V10.0879C33.5254 9.9707 33.6074 9.8418 33.6777 9.70117C33.7598 9.56055 33.8418 9.42578 33.9238 9.29688C34.0176 9.16797 34.1172 9.05078 34.2227 8.94531C34.3281 8.83984 34.4629 8.75781 34.627 8.69922C34.8145 8.75781 35.002 8.79883 35.1895 8.82227C35.3887 8.8457 35.5762 8.89258 35.752 8.96289C35.7637 9.25586 35.793 9.5957 35.8398 9.98242C35.8867 10.3691 35.9688 10.6973 36.0859 10.9668C36.0859 11.1191 36.0801 11.2656 36.0684 11.4062C36.0684 11.5469 36.0684 11.6875 36.0684 11.8281C36.0684 12.0625 36.0742 12.3027 36.0859 12.5488C36.1094 12.7949 36.1504 13.0234 36.209 13.2344C36.127 13.4102 36.0859 13.5977 36.0859 13.7969C36.0859 14.0664 36.127 14.3242 36.209 14.5703C36.291 14.8047 36.3496 15.0566 36.3848 15.3262C36.5371 15.5371 36.7363 15.6426 36.9824 15.6426C37.041 15.6426 37.0879 15.6367 37.123 15.625C37.1699 15.6133 37.2168 15.5957 37.2637 15.5723C37.3574 15.6777 37.4395 15.7832 37.5098 15.8887C37.5918 15.9824 37.6855 16.0703 37.791 16.1523ZM49.9375 7.45117C49.9141 7.5918 49.8789 7.71484 49.832 7.82031C49.7969 7.91406 49.791 8.04297 49.8145 8.20703C49.6973 8.21875 49.6035 8.25977 49.5332 8.33008C49.4746 8.38867 49.4219 8.45898 49.375 8.54102C49.3398 8.62305 49.2988 8.71094 49.252 8.80469C49.2168 8.88672 49.1699 8.96289 49.1113 9.0332C49.2051 9.45508 49.2578 9.88281 49.2695 10.3164C49.2812 10.75 49.3105 11.1777 49.3574 11.5996C49.416 12.1387 49.5039 12.6719 49.6211 13.1992C49.75 13.7148 49.8145 14.2422 49.8145 14.7812C49.8145 14.9453 49.8086 15.0977 49.7969 15.2383C49.7969 15.3789 49.7969 15.5254 49.7969 15.6777C49.7969 15.7715 49.7969 15.8711 49.7969 15.9766C49.8086 16.0703 49.8145 16.1641 49.8145 16.2578C49.8145 16.5977 49.7676 16.9375 49.6738 17.2773C49.5918 17.6172 49.5273 17.957 49.4805 18.2969C49.3398 18.4258 49.2168 18.5664 49.1113 18.7188C49.0176 18.8711 48.918 19.0117 48.8125 19.1406C48.707 19.2695 48.584 19.3809 48.4434 19.4746C48.3027 19.5801 48.127 19.6504 47.916 19.6855C47.8809 19.8027 47.8105 19.8906 47.7051 19.9492C47.6113 20.0078 47.5293 20.0898 47.459 20.1953H47.4238C47.1309 20.1953 46.8789 20.1543 46.668 20.0723C46.457 19.9902 46.2578 19.8965 46.0703 19.791C45.8945 19.6855 45.7129 19.5742 45.5254 19.457C45.3379 19.3398 45.1211 19.2461 44.875 19.1758C44.5469 18.9062 44.248 18.6133 43.9785 18.2969C43.709 17.9688 43.4043 17.6758 43.0645 17.418C42.9824 17.1836 42.8711 16.9902 42.7305 16.8379C42.6016 16.6855 42.4727 16.5098 42.3438 16.3105C42.2852 16.2285 42.2383 16.1523 42.2031 16.082C42.1797 16.0117 42.1445 15.9297 42.0977 15.8359C42.0625 15.7422 42.0039 15.6777 41.9219 15.6426C41.8516 15.6074 41.7871 15.5664 41.7285 15.5195C41.6348 15.1562 41.5 14.8223 41.3242 14.5176C41.1484 14.2129 40.9434 13.9199 40.709 13.6387C40.6387 13.7676 40.5801 13.9082 40.5332 14.0605C40.498 14.2012 40.4629 14.3477 40.4277 14.5C40.3926 14.6406 40.3457 14.7871 40.2871 14.9395C40.2402 15.0801 40.1758 15.209 40.0938 15.3262V15.3789C40.0938 15.4375 40.1172 15.4727 40.1641 15.4844C40.2109 15.4961 40.2344 15.5312 40.2344 15.5898C40.2344 15.6016 40.2285 15.6133 40.2168 15.625C40.2168 15.6367 40.2168 15.6484 40.2168 15.6602C40.1582 15.707 40.1113 15.7656 40.0762 15.8359C40.0527 15.9062 39.9941 15.9473 39.9004 15.959C39.9121 16.0176 39.918 16.0762 39.918 16.1348V16.293C39.918 16.6328 39.877 16.9727 39.7949 17.3125C39.7246 17.6523 39.6895 17.998 39.6895 18.3496V18.5781C39.6895 18.6602 39.6953 18.7363 39.707 18.8066C39.7305 18.877 39.7656 18.9473 39.8125 19.0176C39.8594 19.0879 39.8828 19.1523 39.8828 19.2109C39.8828 19.293 39.8477 19.3691 39.7773 19.4395C39.8594 19.498 39.9531 19.5625 40.0586 19.6328C40.1641 19.7031 40.2578 19.7793 40.3398 19.8613C40.4336 19.9551 40.5098 20.0488 40.5684 20.1426C40.627 20.248 40.6562 20.3594 40.6562 20.4766C40.6562 20.6758 40.5918 20.8164 40.4629 20.8984C40.334 20.9805 40.1758 21.0449 39.9883 21.0918C39.8125 21.1387 39.625 21.1797 39.4258 21.2148C39.2383 21.2617 39.0801 21.3379 38.9512 21.4434H38.8984C38.7578 21.4434 38.6523 21.4023 38.582 21.3203C38.5117 21.2383 38.4062 21.1973 38.2656 21.1973C38.043 20.834 37.8906 20.4238 37.8086 19.9668C37.7266 19.5215 37.6855 19.0938 37.6855 18.6836C37.6855 18.1797 37.7324 17.6758 37.8262 17.1719C37.9082 16.668 38.0137 16.1699 38.1426 15.6777C38.2598 15.1855 38.3887 14.6992 38.5293 14.2188C38.6816 13.7266 38.8223 13.2344 38.9512 12.7422L38.9688 12.6895C38.9688 12.6309 38.9512 12.5898 38.916 12.5664C38.8926 12.543 38.8809 12.5078 38.8809 12.4609C38.8809 12.4375 38.8867 12.4258 38.8984 12.4258C38.9336 12.3086 38.9688 12.1973 39.0039 12.0918C39.0508 11.9863 39.0859 11.8691 39.1094 11.7402C39.1797 11.4121 39.2266 11.0781 39.25 10.7383C39.2852 10.3867 39.3027 10.041 39.3027 9.70117C39.3145 9.36133 39.3262 9.02148 39.3379 8.68164C39.3613 8.33008 39.4023 7.98438 39.4609 7.64453C39.5547 7.55078 39.6426 7.45117 39.7246 7.3457C39.8066 7.24023 39.9121 7.14648 40.041 7.06445C40.2754 7.07617 40.5098 7.11133 40.7441 7.16992C40.9785 7.22852 41.2012 7.32227 41.4121 7.45117C41.5527 7.95508 41.6465 8.45898 41.6934 8.96289C41.752 9.4668 41.8457 9.9707 41.9746 10.4746V10.5273C41.9746 10.5859 42.0039 10.6152 42.0625 10.6152C42.1328 10.6035 42.1855 10.6211 42.2207 10.668C42.1973 10.7031 42.1797 10.7441 42.168 10.791C42.168 10.8379 42.168 10.8848 42.168 10.9316V11.2305C42.1914 11.3242 42.2207 11.4238 42.2559 11.5293C42.291 11.6348 42.3672 11.6992 42.4844 11.7227C42.543 12.0977 42.6309 12.4434 42.748 12.7598C42.8652 13.0762 43 13.3809 43.1523 13.6738C43.3047 13.9668 43.4688 14.2598 43.6445 14.5527C43.8203 14.834 44.002 15.1328 44.1895 15.4492C44.4824 15.6719 44.7344 15.9297 44.9453 16.2227C45.1562 16.5039 45.3672 16.7793 45.5781 17.0488C45.8008 17.3066 46.0469 17.5352 46.3164 17.7344C46.5977 17.9336 46.9609 18.0566 47.4062 18.1035C47.4648 18.0566 47.5059 17.9922 47.5293 17.9102L47.6172 17.6641C47.6523 17.582 47.6875 17.5117 47.7227 17.4531C47.7695 17.3828 47.834 17.3301 47.916 17.2949C47.9395 16.9668 47.9629 16.6328 47.9863 16.293C48.0215 15.9531 48.0977 15.6309 48.2148 15.3262C48.1562 15.2207 48.127 15.0918 48.127 14.9395C48.127 14.8223 48.1328 14.7109 48.1445 14.6055C48.168 14.5 48.1797 14.3945 48.1797 14.2891C48.1797 14.0664 48.1328 13.8848 48.0391 13.7441C48.0391 13.6621 48.0449 13.5801 48.0566 13.498C48.0684 13.4043 48.1035 13.3164 48.1621 13.2344C48.0684 13 47.9922 12.7539 47.9336 12.4961C47.8867 12.2383 47.8633 11.9746 47.8633 11.7051C47.8633 11.5527 47.8809 11.3945 47.916 11.2305C47.8457 11.0547 47.7988 10.8496 47.7754 10.6152L47.7051 9.89453C47.6816 9.64844 47.6465 9.41992 47.5996 9.20898C47.5527 8.99805 47.4648 8.82812 47.3359 8.69922C47.4062 8.59375 47.4414 8.4707 47.4414 8.33008C47.4414 8.0957 47.4062 7.87305 47.3359 7.66211C47.2656 7.45117 47.2305 7.22852 47.2305 6.99414C47.2305 6.83008 47.2656 6.66602 47.3359 6.50195C47.5938 6.51367 47.8457 6.54297 48.0918 6.58984C48.3496 6.625 48.6016 6.64258 48.8477 6.64258C48.918 6.73633 49 6.8125 49.0938 6.87109C49.1875 6.92969 49.2871 6.98828 49.3926 7.04688C49.498 7.09375 49.5977 7.14648 49.6914 7.20508C49.7969 7.26367 49.8789 7.3457 49.9375 7.45117ZM70.0117 9.2793C69.9766 9.38477 69.9062 9.46094 69.8008 9.50781C69.707 9.54297 69.6074 9.57227 69.502 9.5957C69.3965 9.61914 69.2969 9.66016 69.2031 9.71875C69.1211 9.76562 69.0684 9.84766 69.0449 9.96484L69.0098 9.98242C68.9629 9.98242 68.9277 9.9707 68.9043 9.94727C68.8926 9.91211 68.8809 9.88281 68.8691 9.85938C68.8574 9.82422 68.8398 9.79492 68.8164 9.77148C68.8047 9.73633 68.7812 9.71875 68.7461 9.71875C68.6172 9.71875 68.4883 9.73047 68.3594 9.75391C68.2422 9.77734 68.125 9.78906 68.0078 9.78906C67.832 9.78906 67.6738 9.76562 67.5332 9.71875C67.4512 9.74219 67.4043 9.79492 67.3926 9.87695C67.3926 9.95898 67.3574 10.0117 67.2871 10.0352C67.2285 10.0586 67.1582 10.0703 67.0762 10.0703C66.9941 10.0586 66.9121 10.0645 66.8301 10.0879L66.2676 10.2285C66.0801 10.2754 65.8926 10.2988 65.7051 10.2988C65.5996 10.2988 65.5234 10.293 65.4766 10.2812C65.3008 10.4219 65.1016 10.5273 64.8789 10.5977C64.6562 10.6562 64.4219 10.7148 64.1758 10.7734C63.9414 10.8203 63.707 10.8848 63.4727 10.9668C63.25 11.0488 63.0508 11.1777 62.875 11.3535C62.7812 11.3301 62.6992 11.3184 62.6289 11.3184C62.4766 11.3184 62.3418 11.3535 62.2246 11.4238C62.1074 11.4824 61.9844 11.541 61.8555 11.5996C61.7969 11.623 61.7383 11.6348 61.6797 11.6348C61.6211 11.6348 61.5566 11.6465 61.4863 11.6699C61.416 11.6934 61.3691 11.7344 61.3457 11.793C61.334 11.8398 61.2988 11.8867 61.2402 11.9336C61.2402 12.3555 61.2812 12.7773 61.3633 13.1992C61.4453 13.6094 61.4863 14.0254 61.4863 14.4473V14.5176C61.5098 14.7168 61.5742 14.9043 61.6797 15.0801C61.7852 15.2441 61.8379 15.4141 61.8379 15.5898C61.8379 15.6484 61.8262 15.7129 61.8027 15.7832C62.1074 15.8535 62.3066 16.0117 62.4004 16.2578C62.5059 16.4922 62.5879 16.75 62.6465 17.0312C62.7168 17.3008 62.8047 17.5527 62.9102 17.7871C63.0273 18.0215 63.25 18.168 63.5781 18.2266C63.6016 18.3438 63.6191 18.4668 63.6309 18.5957C63.6426 18.7129 63.6484 18.8301 63.6484 18.9473C63.6484 19.1113 63.6309 19.2695 63.5957 19.4219C63.5605 19.5859 63.4902 19.7324 63.3848 19.8613C63.209 19.873 63.0801 19.8789 62.998 19.8789C62.916 19.8789 62.793 19.9141 62.6289 19.9844C62.3945 19.8438 62.1836 19.6797 61.9961 19.4922C61.8203 19.3164 61.6504 19.1289 61.4863 18.9297C61.334 18.7188 61.1816 18.5078 61.0293 18.2969C60.877 18.0742 60.7129 17.8633 60.5371 17.6641C59.9277 17.8164 59.3008 17.9219 58.6562 17.9805C58.0234 18.0273 57.3906 18.0508 56.7578 18.0508C56.7344 18.0742 56.6992 18.0859 56.6523 18.0859C56.6055 18.0859 56.5586 18.0918 56.5117 18.1035C56.4766 18.1035 56.4414 18.1152 56.4062 18.1387C56.3828 18.1504 56.377 18.1797 56.3887 18.2266C56.3066 18.1797 56.2129 18.1504 56.1074 18.1387C56.0137 18.1152 55.9258 18.1035 55.8438 18.1035C55.7852 18.1035 55.7266 18.1094 55.668 18.1211C55.6094 18.1211 55.5508 18.1387 55.4922 18.1738C55.0469 18.0918 54.6133 17.9805 54.1914 17.8398C53.7812 17.6875 53.3594 17.5645 52.9258 17.4707C52.9258 17.377 52.9023 17.3125 52.8555 17.2773C52.8086 17.2305 52.7676 17.166 52.7324 17.084C52.2402 16.7793 51.8242 16.4102 51.4844 15.9766C51.1562 15.543 51.0215 15.0156 51.0801 14.3945L50.957 14.1484C50.957 13.9609 50.998 13.8262 51.0801 13.7441C51.0332 13.6621 50.9512 13.5801 50.834 13.498C50.9395 13.334 51.0332 13.1641 51.1152 12.9883C51.1973 12.8125 51.2559 12.625 51.291 12.4258C51.3027 12.3672 51.3086 12.3145 51.3086 12.2676C51.3086 12.2207 51.3203 12.168 51.3438 12.1094C51.3672 12.0391 51.4023 11.9629 51.4492 11.8809C51.4844 11.7871 51.5195 11.7051 51.5547 11.6348C51.7422 11.2363 51.9473 10.8555 52.1699 10.4922C52.4043 10.1172 52.6973 9.79492 53.0488 9.52539C53.0723 9.32617 53.1309 9.16211 53.2246 9.0332C53.3184 8.89258 53.418 8.76953 53.5234 8.66406C53.6406 8.54688 53.752 8.42969 53.8574 8.3125C53.9746 8.19531 54.0625 8.05469 54.1211 7.89062C54.3555 7.69141 54.5898 7.49805 54.8242 7.31055C55.0703 7.12305 55.2754 6.90039 55.4395 6.64258C55.6504 6.57227 55.8496 6.48438 56.0371 6.37891C56.2246 6.26172 56.3828 6.11523 56.5117 5.93945C56.793 5.91602 57.0684 5.86328 57.3379 5.78125C57.6191 5.69922 57.9121 5.6582 58.2168 5.6582C58.3457 5.6582 58.498 5.6875 58.6738 5.74609C58.8613 5.79297 59.002 5.88086 59.0957 6.00977C59.1074 6.0332 59.1133 6.0625 59.1133 6.09766L59.1309 6.18555C59.1426 6.20898 59.1543 6.23242 59.166 6.25586C59.1895 6.26758 59.2246 6.26758 59.2715 6.25586C59.2715 6.51367 59.2422 6.77734 59.1836 7.04688C59.125 7.30469 58.9727 7.50391 58.7266 7.64453C58.5742 7.59766 58.4102 7.57422 58.2344 7.57422C58 7.57422 57.7832 7.62109 57.584 7.71484C57.3965 7.79688 57.209 7.89648 57.0215 8.01367C56.8457 8.11914 56.6641 8.23047 56.4766 8.34766C56.2891 8.45312 56.0898 8.5293 55.8789 8.57617C55.8555 8.66992 55.832 8.75781 55.8086 8.83984C55.7969 8.91016 55.8027 8.99219 55.8262 9.08594C55.7676 9.08594 55.7207 9.08008 55.6855 9.06836C55.6621 9.04492 55.6211 9.0332 55.5625 9.0332C55.4805 9.0332 55.4219 9.08008 55.3867 9.17383C55.3633 9.26758 55.3398 9.34375 55.3164 9.40234C55.0938 9.49609 54.9062 9.63086 54.7539 9.80664C54.6133 9.9707 54.4785 10.1523 54.3496 10.3516C54.2324 10.5391 54.1035 10.7207 53.9629 10.8965C53.8223 11.0723 53.6465 11.207 53.4355 11.3008C53.3418 11.6758 53.248 12.0449 53.1543 12.4082C53.0723 12.7715 52.9727 13.1348 52.8555 13.498C52.8906 13.6387 52.9082 13.7852 52.9082 13.9375C52.9082 14.125 52.8906 14.2949 52.8555 14.4473C52.9141 14.541 52.9727 14.6523 53.0312 14.7812L53.2422 15.1855C53.3125 15.3262 53.3828 15.4551 53.4531 15.5723C53.5352 15.6895 53.6113 15.7773 53.6816 15.8359C53.8105 15.9297 54.0098 16.0176 54.2793 16.0996C54.5488 16.1699 54.7891 16.293 55 16.4688C55.0234 16.4688 55.0527 16.4688 55.0879 16.4688C55.123 16.457 55.1523 16.4512 55.1758 16.4512C55.3164 16.4512 55.4688 16.4863 55.6328 16.5566C55.7969 16.627 55.9023 16.6621 55.9492 16.6621C56.6055 16.6621 57.3203 16.6211 58.0938 16.5391C58.8672 16.4453 59.582 16.334 60.2383 16.2051C60.2617 16.0879 60.2734 15.9883 60.2734 15.9062C60.2734 15.7539 60.25 15.6074 60.2031 15.4668C60.1562 15.3145 60.0801 15.1855 59.9746 15.0801C59.9746 14.9043 59.9746 14.7285 59.9746 14.5527C59.9863 14.377 59.9922 14.2012 59.9922 14.0254C59.9922 13.7324 59.9805 13.4219 59.957 13.0938C59.9336 12.7656 59.875 12.4609 59.7812 12.1797H59.7461C59.5938 12.1797 59.4531 12.2207 59.3242 12.3027C59.207 12.373 59.084 12.4082 58.9551 12.4082C58.8848 12.4082 58.8262 12.3906 58.7793 12.3555C58.6387 12.5195 58.4688 12.6426 58.2695 12.7246C58.0703 12.8066 57.8594 12.8828 57.6367 12.9531C57.4141 13.0117 57.1914 13.0762 56.9688 13.1465C56.7578 13.2168 56.5645 13.3164 56.3887 13.4453C56.2949 13.4102 56.207 13.3926 56.125 13.3926C56.043 13.3926 55.9609 13.3984 55.8789 13.4102C55.8086 13.4219 55.7266 13.4336 55.6328 13.4453C55.3867 13.2344 55.2637 12.9707 55.2637 12.6543C55.2637 12.4902 55.2871 12.332 55.334 12.1797C55.3926 12.0156 55.4688 11.8633 55.5625 11.7227C55.6211 11.6875 55.6914 11.6699 55.7734 11.6699C55.8555 11.6582 55.9375 11.6465 56.0195 11.6348C56.1016 11.6113 56.166 11.582 56.2129 11.5469C56.2715 11.5117 56.3066 11.4473 56.3184 11.3535C56.3535 11.3887 56.3828 11.4062 56.4062 11.4062C56.4297 11.4062 56.4531 11.4004 56.4766 11.3887C56.5 11.377 56.5234 11.3711 56.5469 11.3711C56.5703 11.3711 56.5879 11.3828 56.5996 11.4062C56.623 11.4297 56.6348 11.4531 56.6348 11.4766C57.1387 11.207 57.6543 10.9785 58.1816 10.791C58.709 10.6035 59.2422 10.4336 59.7812 10.2812C60.332 10.1289 60.8828 9.98828 61.4336 9.85938C61.9844 9.71875 62.5293 9.56641 63.0684 9.40234C63.1504 9.33203 63.2383 9.2793 63.332 9.24414C63.4258 9.20898 63.5078 9.15625 63.5781 9.08594C63.6602 9.13281 63.7598 9.15625 63.877 9.15625C64.041 9.15625 64.2168 9.12695 64.4043 9.06836C64.6035 8.99805 64.7676 8.91602 64.8965 8.82227C64.9434 8.83398 64.9844 8.83984 65.0195 8.83984H65.1426C65.377 8.83984 65.5938 8.80469 65.793 8.73438C66.0039 8.66406 66.209 8.57031 66.4082 8.45312H66.4961C66.8594 8.45312 67.2168 8.41211 67.5684 8.33008C67.9316 8.24805 68.3008 8.20703 68.6758 8.20703C69.1562 8.20703 69.5781 8.33008 69.9414 8.57617V8.78711C69.9414 8.88086 69.9414 8.96875 69.9414 9.05078C69.9531 9.12109 69.9766 9.19727 70.0117 9.2793ZM74.2305 16.7852C74.2305 16.9844 74.1777 17.1602 74.0723 17.3125C73.9785 17.4531 73.9434 17.6289 73.9668 17.8398C73.8027 17.9336 73.668 18.0566 73.5625 18.209C73.457 18.3613 73.3574 18.5195 73.2637 18.6836C72.4902 19.1875 71.6582 19.5918 70.7676 19.8965C69.8887 20.2129 68.9805 20.3711 68.043 20.3711C67.9844 20.3711 67.9316 20.3418 67.8848 20.2832C67.8379 20.2363 67.791 20.1836 67.7441 20.125C67.6973 20.0664 67.6445 20.0078 67.5859 19.9492C67.5391 19.9023 67.4805 19.8789 67.4102 19.8789C67.3281 19.8789 67.2637 19.8965 67.2168 19.9316C67.2168 19.9082 67.2168 19.8848 67.2168 19.8613C67.2285 19.8496 67.2344 19.832 67.2344 19.8086C67.2344 19.668 67.2168 19.5215 67.1816 19.3691C67.1465 19.2285 67.1289 19.0879 67.1289 18.9473C67.1289 18.7832 67.1582 18.6484 67.2168 18.543H67.4277C67.5449 18.543 67.6562 18.5371 67.7617 18.5254C67.8789 18.502 68.002 18.4902 68.1309 18.4902C68.2598 18.4902 68.377 18.5254 68.4824 18.5957C69.127 18.5723 69.7363 18.4551 70.3105 18.2441C70.8965 18.0215 71.4883 17.8047 72.0859 17.5938C72.1797 17.4648 72.2324 17.3242 72.2441 17.1719C72.2676 17.0078 72.3145 16.8555 72.3848 16.7148C72.0801 16.457 71.7695 16.2578 71.4531 16.1172C71.1484 15.9648 70.791 15.9121 70.3809 15.959C70.1348 15.8066 69.8711 15.7188 69.5898 15.6953C69.3203 15.6719 69.0449 15.6367 68.7637 15.5898C68.6934 15.5781 68.6172 15.5664 68.5352 15.5547C68.4648 15.5312 68.3887 15.5195 68.3066 15.5195C68.248 15.5195 68.1895 15.5371 68.1309 15.5723C68.084 15.5957 68.0723 15.6367 68.0957 15.6953C68.0371 15.6016 67.9551 15.5488 67.8496 15.5371C67.7559 15.5137 67.6738 15.4668 67.6035 15.3965C67.2285 15.373 66.9004 15.3086 66.6191 15.2031C66.3379 15.0859 66.0273 14.957 65.6875 14.8164C65.5938 14.7812 65.5 14.7578 65.4062 14.7461C65.3242 14.7227 65.2422 14.6875 65.1602 14.6406C64.9492 14.5352 64.7793 14.3945 64.6504 14.2188C64.5215 14.043 64.4219 13.8496 64.3516 13.6387C64.2695 13.416 64.2109 13.1875 64.1758 12.9531C64.1406 12.7188 64.1055 12.502 64.0703 12.3027C64.1758 12.1152 64.2754 11.9219 64.3691 11.7227C64.4512 11.5234 64.5215 11.3125 64.5801 11.0898C64.6504 11.0547 64.7207 11.0254 64.791 11.002C64.8613 10.9785 64.9375 10.9492 65.0195 10.9141C65.0078 10.8906 65.002 10.8613 65.002 10.8262C65.002 10.7676 65.0195 10.709 65.0547 10.6504C65.1016 10.5918 65.1133 10.5332 65.0898 10.4746C65.3477 10.2402 65.5938 10 65.8281 9.75391C66.0742 9.49609 66.2852 9.21484 66.4609 8.91016C66.6367 8.85156 66.7773 8.76367 66.8828 8.64648C66.9883 8.5293 67.0938 8.41211 67.1992 8.29492C67.3047 8.16602 67.4219 8.05469 67.5508 7.96094C67.6797 7.85547 67.8438 7.79102 68.043 7.76758C68.0898 7.68555 68.1543 7.62109 68.2363 7.57422C68.3184 7.51562 68.4004 7.46289 68.4824 7.41602C68.5645 7.36914 68.6406 7.31641 68.7109 7.25781C68.7812 7.19922 68.834 7.11719 68.8691 7.01172C69.0566 7.01172 69.2266 6.97656 69.3789 6.90625C69.543 6.83594 69.7012 6.75977 69.8535 6.67773C70.0059 6.5957 70.1582 6.51953 70.3105 6.44922C70.4746 6.37891 70.6504 6.34375 70.8379 6.34375C70.8848 6.34375 70.9316 6.34961 70.9785 6.36133C71.0254 6.36133 71.0781 6.36719 71.1367 6.37891C71.2188 6.46094 71.2715 6.56055 71.2949 6.67773C71.3301 6.7832 71.3535 6.90039 71.3652 7.0293C71.377 7.1582 71.3828 7.28711 71.3828 7.41602C71.3945 7.54492 71.418 7.66211 71.4531 7.76758C71.3477 7.9668 71.2305 8.16602 71.1016 8.36523C70.9844 8.56445 70.8262 8.7168 70.627 8.82227H70.5918C70.5098 8.83398 70.4336 8.81641 70.3633 8.76953C70.293 8.72266 70.2109 8.69922 70.1172 8.69922C70.0586 8.69922 70.0117 8.7168 69.9766 8.75195L69.8887 8.83984C69.8652 8.86328 69.8301 8.88672 69.7832 8.91016C69.748 8.93359 69.6953 8.93359 69.625 8.91016C69.4609 8.96875 69.3965 9.06836 69.4316 9.20898C69.209 9.23242 69.0215 9.30273 68.8691 9.41992C68.7168 9.52539 68.5762 9.64844 68.4473 9.78906C68.3184 9.91797 68.1895 10.041 68.0605 10.1582C67.9316 10.2637 67.7793 10.3223 67.6035 10.334C67.4043 10.6855 67.1582 10.9961 66.8652 11.2656C66.584 11.5352 66.3496 11.8398 66.1621 12.1797C66.1973 12.2734 66.2207 12.373 66.2324 12.4785C66.2441 12.584 66.2617 12.6953 66.2852 12.8125C66.3906 12.9531 66.5137 13.0762 66.6543 13.1816C66.8066 13.2871 66.9531 13.3926 67.0938 13.498H67.1465C67.3809 13.498 67.5977 13.5449 67.7969 13.6387C67.9961 13.7207 68.207 13.7617 68.4297 13.7617C68.5469 13.7617 68.6465 13.7383 68.7285 13.6914C69.0332 13.7617 69.332 13.8203 69.625 13.8672C69.9297 13.9141 70.2344 13.9492 70.5391 13.9727C70.6914 13.9961 70.8438 14.0078 70.9961 14.0078C71.1602 14.0078 71.3125 14.0254 71.4531 14.0605C71.582 14.0957 71.7109 14.1426 71.8398 14.2012C71.9688 14.248 72.0977 14.3008 72.2266 14.3594C72.4961 14.4766 72.748 14.6055 72.9824 14.7461C73.2285 14.8867 73.4453 15.0566 73.6328 15.2559C73.8203 15.4434 73.9668 15.666 74.0723 15.9238C74.1777 16.1699 74.2305 16.457 74.2305 16.7852Z" fill="#FFBC00"/>
</svg>
